<svg id="Capa_1" data-name="Capa 1" xmlns="http://www.w3.org/2000/svg" viewBox="0 0 900 900">
    <defs>
        <style>
        .cls-1,.cls-2{fill:none;stroke:#000;stroke-linecap:round;stroke-linejoin:round;}.cls-1{stroke-width:20px;}.cls-2{stroke-width:14px;}
        </style>
    </defs>
    <path class="cls-1" d="M850,275V625a50.15,50.15,0,0,1-50,50H100a50.15,50.15,0,0,1-50-50V275a50.15,50.15,0,0,1,50-50H269l53.5-53.5h256L632,225H800A50.15,50.15,0,0,1,850,275Z"/>
    <circle class="cls-1" cx="450.5" cy="450.5" r="169"/>
    <path class="cls-1" d="M570,400.55A137.51,137.51,0,0,0,445,320.5"/>
    <rect class="cls-1" x="93.5" y="262.5" width="107" height="46" rx="23"/>
    <line class="cls-2" x1="147" y1="286" x2="174" y2="286"/>
    <line class="cls-1" x1="339.5" y1="200.5" x2="555.5" y2="200.5"/>
    <line class="cls-1" x1="785.5" y1="281.5" x2="785.5" y2="423.5"/>
    <line class="cls-1" x1="785.5" y1="465.5" x2="785.5" y2="611.5"/>
</svg>