<svg xmlns="http://www.w3.org/2000/svg" viewBox="0 0 604 662"><defs><style>.cls-1{stroke-linecap:round;stroke-linejoin:round;stroke-width:20px;}</style></defs><g id="Capa_2" data-name="Capa 2"><g id="Capa_1-2" data-name="Capa 1"><path class="cls-1" d="M587,558a38.56,38.56,0,0,0-48-15L498,405H251L230,285H373a115.34,115.34,0,0,0,12,0c13-.68,22.32-1.17,30-7,.53-.4,12.17-9.47,11-20-1.22-11-16.21-21.61-37-21H230l-16.71-79.42a78,78,0,1,0-61.46,3.92l8.34,63.55C72.94,253.9,10,336.09,10,433c0,121,98.05,219,219,219,112.49,0,205.16-84.82,217.57-194H464l37,139,93-19A43.1,43.1,0,0,0,587,558ZM229,593a163,163,0,0,1-62.06-313.76L190,467l199.28-7.2A163.05,163.05,0,0,1,229,593Z"/></g></g></svg>