<svg xmlns="http://www.w3.org/2000/svg" viewBox="0 0 435 514.01"><defs><style>.cls-1{fill:#fff;stroke:#fff;stroke-miterlimit:10;}</style></defs><g id="Capa_2" data-name="Capa 2"><g id="Capa_4" data-name="Capa 4"><path class="cls-1" d="M39.5,139.51v317s2,51,53,57h250c51-6,53-57,53-57v-317Zm98,296h-40v-237h40Zm100,0h-40v-237h40Zm100,0h-40v-237h40Z"/><path class="cls-1" d="M416.5,79.51s3-19-19-19h-80s3-61-46-60h-108c-49-1-46,60-46,60h-80c-22,0-19,19-19,19H.5v41h434v-41Zm-141-19h-116c-3-19,12-17,12-17h92S278.5,41.51,275.5,60.51Z"/></g></g></svg>