<svg xmlns="http://www.w3.org/2000/svg" viewBox="0 0 559.5 378.08"><defs><style>.cls-1{fill:none;stroke:#303030;stroke-linecap:round;stroke-linejoin:round;stroke-width:20px;}</style></defs><g id="Capa_2" data-name="Capa 2"><g id="Capa_1-2" data-name="Capa 1"><path class="cls-1" d="M498.64,225.51A183.24,183.24,0,0,1,525,226.58a20.71,20.71,0,0,0,6,2c2,.34,4,.68,6,0a10,10,0,0,0,6-7c1.42-7.11-10.3-14.88-15-18a93.43,93.43,0,0,0-46-15s-5.63-.11-41,6c0,0-4.42.42-6,0-5.18-1.38-5-19-5-19,.52-31.59-17.18-78-28-91-1.19-1.43-5.42-6.23-4-10,.86-2.29,3.63-3.75,6-4,3.08-.33,5.13,1.41,8,3,1.05.59,10.14,5.55,15,4,8.05-2.56,8-24.11,6-37-1.05-6.66-3-19.16-10-21a12.66,12.66,0,0,0-10,2c-2,1.5-1.91,2.68-4,4-2.48,1.56-6.37,2.31-9,1-4.91-2.44-2.28-10.47-6-15-2.34-2.84-12.09-1.45-31,1a8.72,8.72,0,0,0-5,2c-3.62,3.32-2.68,9.81-2,14a233.49,233.49,0,0,0,7,31c2.65,8.24,3.44,17.11,7,25,.66,1.46,2,4.22,1,7-1.64,4.72-8.36,5.35-12,7-14.13,6.39-14.16,42.53-10,67,5.2,30.61,10,46,10,46,2.9,9.31,5.92,17.13,2,23-3.29,4.92-9.59,5.68-22,7-22.39,2.38-23.91-2.82-42,0-5.79.9-10,2.11-15,0-7.77-3.25-11.07-11.63-12-14-5.27-13.38-1.42-30.38,7-42,6.28-8.66,12.08-10.16,17-21,2.48-5.47,4.69-9.72,4-15-1.33-10.13-11.88-16.12-24-23a106.19,106.19,0,0,0-32-12c-11.13-2.12-19.25-1.7-33-1-13.29.68-20,1.08-24,4-12.66,9.29-8.82,33.31-8,38h-9v-96l-7-12H16l-6,5v97l7,6H54a25.72,25.72,0,0,1,5,2c10.32,5.45,15,17.14,15,26,0,4.18-1.1,6-2,7-2.15,2.39-5.18,2.32-8,3-4.89,1.18-7.73,4.27-13,10-10.78,11.73-10.9,27-22,62-1.91,6-3.81,11.55-1,15,4.75,5.84,19.18,1,22,0H65.94a73,73,0,1,0,143.12,0H236s7,2,7,5,14,3,14,3H385a54,54,0,0,0,20-8.06,73,73,0,1,0,93.68-55ZM137.25,337.58a42.27,42.27,0,0,1-39.6-57h79.2a42.27,42.27,0,0,1-39.6,57Zm339,0a42.25,42.25,0,1,1,42.25-42.25A42.26,42.26,0,0,1,476.25,337.58Z"/></g></g></svg>