<svg xmlns="http://www.w3.org/2000/svg" viewBox="0 0 1000 1000"><defs><style>.cls-1{fill:#831b36;}.cls-2,.cls-4{fill:#fff;}.cls-3{fill:#851a38;}.cls-4{font-size:118px;font-family:IowanOldStyle-Black, Iowan Old Style;font-weight:800;}</style></defs><g id="Capa_2" data-name="Capa 2"><g id="Capa_1-2" data-name="Capa 1"><rect class="cls-1" width="1000" height="1000" rx="500"/></g><g id="Capa_3" data-name="Capa 3"><rect class="cls-2" x="15.5" y="14.5" width="970" height="970" rx="485"/></g><g id="Capa_4" data-name="Capa 4"><rect class="cls-3" x="30.5" y="29.5" width="940" height="940" rx="470"/></g><g id="Capa_7" data-name="Capa 7"><text class="cls-4" transform="matrix(0.54, -0.84, 0.84, 0.54, 188.86, 353.23)">E</text><text class="cls-4" transform="matrix(0.72, -0.69, 0.69, 0.72, 233.45, 282.93)">L</text><text class="cls-4" transform="translate(292.22 228.53) rotate(-34.28)"> </text><text class="cls-4" transform="matrix(0.91, -0.41, 0.41, 0.91, 320.13, 206.34)">C</text><text class="cls-4" transform="matrix(0.98, -0.22, 0.22, 0.98, 399.58, 172.48)">I</text><text class="cls-4" transform="translate(447.38 159.32) rotate(-0.93)">R</text><text class="cls-4" transform="matrix(0.97, 0.25, -0.25, 0.97, 542.19, 158.03)">C</text><text class="cls-4" transform="translate(625.48 177.84) rotate(30.09)">U</text><text class="cls-4" transform="matrix(0.71, 0.71, -0.71, 0.71, 712.04, 228.93)">L</text><text class="cls-4" transform="matrix(0.5, 0.87, -0.87, 0.5, 769.35, 283.3)">O</text></g><g id="Capa_8" data-name="Capa 8"><text class="cls-4" transform="translate(74.16 541.15) rotate(77.86)">R</text><text class="cls-4" transform="translate(102.81 657.47) rotate(62.47)">E</text><text class="cls-4" transform="matrix(0.66, 0.75, -0.75, 0.66, 154.11, 750.39)">S</text><text class="cls-4" transform="matrix(0.83, 0.56, -0.56, 0.83, 223.16, 825.81)">T</text><text class="cls-4" transform="translate(309.24 883.43) rotate(19.65)">A</text><text class="cls-4" transform="translate(422.88 921.53) rotate(3.32)">U</text><text class="cls-4" transform="translate(550.5 925.3) rotate(-13.35)">R</text><text class="cls-4" transform="translate(668.05 894.3) rotate(-29.92)">A</text><text class="cls-4" transform="matrix(0.68, -0.73, 0.73, 0.68, 774.73, 829.35)">N</text><text class="cls-4" transform="translate(859.15 733.21) rotate(-63.15)">T</text><text class="cls-4" transform="matrix(0.21, -0.98, 0.98, 0.21, 907.29, 631.76)">E</text></g><g id="Capa_5" data-name="Capa 5"><path class="cls-2" d="M499.63,815.5c-63.67-1.58-114-19.62-149.59-53.62-1.82-1.74-3.63-3.55-5.38-5.38l-1.39-3.62c2.31-69.22,5.74-120.63,10.49-157.18l.06-.47a136.24,136.24,0,0,0,0-39.92c-2.86-18.55-10.59-33-23.38-56.95l-2.21-4.13c-2.08-3.9-2.89-5.3-7.39-13.09-2.74-4.76-6.85-11.87-13.43-23.34-10.37-18.08-19.81-34.65-20.91-36.6C272.3,396.06,265.05,349.54,264.92,283l5-5H390.06l5,5V387.63h52.68V282.94l5-5h94l5,5V387.63h52.68V282.94l5-5H729.58l5,5c-.13,66.59-7.38,113.11-21.54,138.25-1.13,2-10.62,18.66-20.91,36.6-6.59,11.49-10.7,18.6-13.45,23.37-4.49,7.76-5.29,9.16-7.37,13.06l-2.21,4.13c-12.79,23.94-20.52,38.4-23.38,56.95a136.24,136.24,0,0,0,0,39.92l.06.47c4.75,36.54,8.18,88,10.49,157.18l-1.39,3.62c-1.74,1.83-3.56,3.64-5.38,5.38-35.59,34-85.92,52-149.59,53.62Z"/><path class="cls-1" d="M729.58,282.94c-.16,83.16-11.31,118.78-20.89,135.81-1.1,1.94-10.54,18.51-20.9,36.56-17.26,30.09-17.47,30.15-20.89,36.56-14.31,26.82-23,42.21-26.12,62.68a141.56,141.56,0,0,0,0,41.79c3.93,30.26,7.8,77.39,10.45,156.7q-2.54,2.65-5.23,5.23c-22.36,21.36-65.46,50.23-146.25,52.23-80.79-2-123.89-30.87-146.26-52.23q-2.69-2.58-5.22-5.23c2.65-79.31,6.52-126.44,10.45-156.7a141.56,141.56,0,0,0,0-41.79c-3.15-20.47-11.81-35.86-26.12-62.68-3.42-6.41-3.63-6.47-20.89-36.56-10.36-18.05-19.8-34.62-20.9-36.56-9.58-17-20.73-52.65-20.89-135.81H390.06V392.63h62.68V282.94h94V392.63h62.68V282.94H729.58m0-10H609.44l-10,10v99.69H556.76V282.94l-10-10h-94l-10,10v99.69H400.06V282.94l-10-10H269.92l-10,10c.13,68.41,7.39,114.43,22.18,140.69,1.11,2,10.58,18.58,20.93,36.64,6.59,11.47,10.71,18.61,13.44,23.34,4.46,7.73,5.27,9.13,7.31,12.95l2.21,4.14c12.54,23.47,20.12,37.64,22.84,55.36a129.42,129.42,0,0,1,0,38.51l-.06.46c-4.77,36.71-8.21,88.28-10.52,157.66L341,760c1.8,1.88,3.66,3.75,5.55,5.55a181.19,181.19,0,0,0,54.19,35.34c28.3,12.12,61.52,18.73,98.72,19.66h.5c37.2-.93,70.42-7.54,98.72-19.66a181.19,181.19,0,0,0,54.19-35.34c1.89-1.8,3.75-3.67,5.55-5.55l2.76-7.24c-2.31-69.38-5.75-121-10.52-157.66l-.06-.46a129.42,129.42,0,0,1,0-38.51c2.72-17.72,10.3-31.89,22.84-55.36l2.21-4.14c2-3.82,2.85-5.22,7.31-12.95,2.73-4.73,6.85-11.87,13.44-23.34,10.35-18.06,19.82-34.67,20.93-36.64,14.79-26.26,22.05-72.28,22.18-140.69l-10-10Zm0,20Z"/></g><g id="Capa_6" data-name="Capa 6"><path class="cls-2" d="M497.14,601.47l-10.51-.13H351.12c-.95.09-1.91.13-2.86.13s-2.08-.05-3.11-.15c-17.25-1.76-33.64-18.11-35.79-35.71-2.72-22.23,16-43.91,40.84-47.35l.68,0H646l.69,0c24.86,3.44,43.56,25.12,40.84,47.35-2.15,17.6-18.54,33.95-35.8,35.71-1,.1-2.07.15-3.1.15s-1.91,0-2.86-.13H510.2l-10.45.13Z"/><path class="cls-1" d="M646,523.21c23.51,3.25,38.82,23.39,36.57,41.79-1.94,15.89-16.91,29.87-31.34,31.34a24.48,24.48,0,0,1-2.61.13c-1,0-1.88-.06-2.62-.13H510.2l-10.45.13h-2.61l-10.45-.13H350.88c-.73.07-1.61.13-2.62.13a24.3,24.3,0,0,1-2.6-.13c-14.43-1.47-29.4-15.45-31.34-31.34-2.25-18.4,13.06-38.54,36.56-41.79H646m0-10H350.88l-1.37.1A54.11,54.11,0,0,0,315.28,532c-8.36,10-12.33,22.45-10.89,34.21,1.2,9.81,6.15,19.4,13.92,27s17,12.12,26.34,13.07c1.19.12,2.41.18,3.61.18,1,0,2.06,0,3.08-.13H486.63l10.38.13h2.87l10.38-.13H645.55c1,.09,2.05.13,3.07.13,1.21,0,2.43-.06,3.62-.18,9.35-.95,18.7-5.59,26.34-13.07s12.72-17.2,13.91-27C693.93,554.45,690,542,681.61,532a54.11,54.11,0,0,0-34.24-18.69l-1.37-.1Z"/></g></g></svg>